<?xml version="1.0" standalone="no"?>
<!DOCTYPE svg PUBLIC "-//W3C//DTD SVG 20010904//EN"
 "http://www.w3.org/TR/2001/REC-SVG-20010904/DTD/svg10.dtd">
<svg version="1.0" xmlns="http://www.w3.org/2000/svg"
 width="614.000000pt" height="614.000000pt" viewBox="0 0 614.000000 614.000000"
 preserveAspectRatio="xMidYMid meet">
<metadata>
Created by potrace 1.14, written by Peter Selinger 2001-2017
</metadata>
<g transform="translate(0.000000,614.000000) scale(0.100000,-0.100000)"
fill="#000000" stroke="none">
<path d="M3065 6125 c-132 -61 -244 -106 -339 -136 -48 -15 -88 -18 -208 -16
-148 2 -158 0 -158 -33 0 -5 38 -32 85 -61 47 -29 88 -55 90 -59 2 -4 -7 -13
-20 -20 -35 -19 -31 -30 13 -31 20 0 46 -2 57 -4 28 -6 77 11 103 36 21 19 30
41 15 37 -5 -1 -24 1 -43 5 -19 4 -45 9 -57 11 -33 7 -109 42 -117 55 -5 7 4
11 26 12 83 3 229 16 273 24 25 5 117 25 192 42 21 5 22 4 19 -122 -4 -156 3
-170 83 -168 29 1 58 6 66 13 16 13 38 72 40 110 1 14 6 70 10 125 4 55 7 102
8 105 0 3 -3 19 -7 36 -11 50 -71 68 -131 39z"/>
<path d="M1281 5897 c-8 -11 25 -63 147 -233 87 -120 169 -234 182 -253 60
-84 120 -167 128 -176 4 -5 23 -32 42 -60 19 -27 37 -52 40 -55 8 -7 253 -348
265 -368 6 -9 12 -19 15 -22 3 -3 35 -45 70 -95 35 -49 67 -92 70 -95 3 -3 10
-13 15 -22 12 -19 163 -230 185 -258 8 -10 44 -59 80 -109 65 -91 301 -419
343 -476 45 -63 131 -182 165 -230 19 -27 39 -54 44 -60 10 -12 132 -182 288
-400 63 -88 118 -164 123 -170 4 -5 65 -89 134 -185 69 -96 196 -272 281 -390
163 -226 207 -297 247 -401 29 -73 30 -98 10 -157 -13 -37 -13 -46 -1 -75 28
-61 46 -73 176 -117 84 -29 132 -58 199 -119 51 -48 121 -86 104 -58 -5 9
-197 276 -291 406 -9 13 -56 78 -104 145 -48 67 -94 130 -102 141 -8 11 -49
67 -90 125 -42 58 -83 115 -92 127 -32 44 -139 193 -179 248 -22 31 -46 64
-53 73 -32 42 -358 495 -367 510 -5 9 -12 19 -16 22 -3 3 -57 77 -120 165 -62
88 -118 165 -122 170 -4 6 -136 188 -293 405 -156 217 -291 403 -299 413 -8 9
-15 20 -15 23 0 4 -58 84 -97 134 -7 8 -50 69 -97 135 -47 66 -89 125 -93 130
-5 6 -24 33 -43 60 -19 28 -38 52 -41 55 -3 3 -20 28 -39 55 -19 28 -36 52
-39 55 -3 3 -22 28 -41 55 -19 28 -38 52 -42 53 -4 2 -8 8 -8 12 0 5 -28 47
-62 93 -35 47 -70 95 -78 107 -8 13 -24 35 -36 49 -11 14 -51 69 -88 121 -37
52 -76 106 -86 120 -10 14 -49 68 -86 120 -37 52 -71 97 -76 98 -4 2 -8 8 -8
13 0 5 -22 39 -50 74 -27 35 -50 69 -50 75 0 15 -36 12 -49 -3z"/>
<path d="M2789 5625 c0 -5 -2 -19 -5 -30 -2 -11 -7 -40 -10 -65 -12 -95 -43
-240 -58 -269 -26 -50 -42 -53 -176 -37 -30 3 -66 8 -80 10 -14 3 -47 7 -75
11 -27 3 -65 8 -83 12 -31 5 -33 4 -30 -17 3 -24 8 -26 93 -35 28 -3 65 -9 83
-14 18 -6 35 -10 37 -10 32 -1 98 -22 188 -58 82 -32 118 -42 140 -37 25 5 28
9 22 32 -36 141 -40 272 -12 427 8 44 13 83 11 87 -7 10 -44 5 -45 -7z"/>
<path d="M2972 5580 c-24 -11 -45 -32 -59 -57 -20 -35 -22 -51 -19 -129 9
-212 98 -332 210 -284 l39 16 -46 18 c-62 23 -93 50 -119 99 -27 53 -29 59
-33 132 -6 121 46 177 182 193 l68 8 -43 13 c-55 16 -133 12 -180 -9z"/>
<path d="M3970 5239 c-19 -5 -49 -10 -66 -13 -48 -8 -164 -52 -230 -87 -221
-117 -369 -292 -443 -522 -16 -50 -32 -112 -36 -137 -4 -25 -10 -54 -12 -65
-9 -38 -12 -330 -3 -375 4 -25 11 -61 14 -80 9 -56 54 -179 55 -149 1 14 8 49
16 77 19 63 47 76 94 43 69 -49 79 -189 18 -258 -31 -35 -31 -36 -7 -29 36 11
79 64 94 116 16 54 13 102 -10 165 -11 32 75 -85 103 -139 60 -117 66 -228 19
-331 -28 -62 -162 -205 -191 -205 -8 0 -15 -4 -15 -9 0 -5 -10 -13 -22 -17
l-23 -8 25 -6 c95 -25 266 32 366 123 148 133 166 342 53 592 -12 28 -23 52
-24 55 -1 3 -13 30 -28 60 -85 179 -102 335 -56 515 14 55 41 127 52 143 5 6
6 12 3 12 -8 0 37 80 73 130 166 230 481 304 746 175 65 -32 105 -67 105 -93
0 -17 -32 -68 -51 -82 -4 -3 -9 -14 -11 -24 -3 -21 9 -29 90 -62 23 -9 64 -39
90 -66 25 -26 50 -48 54 -48 5 0 -7 21 -25 48 -34 47 -79 152 -91 207 -17 78
-23 115 -31 179 -2 21 -7 41 -10 44 -15 15 -270 100 -349 116 -74 16 -274 18
-336 5z"/>
<path d="M2161 5145 c-54 -15 -111 -44 -111 -56 0 -3 27 -12 61 -18 95 -19
155 -47 387 -182 111 -65 178 -93 282 -115 64 -15 180 -2 245 26 46 20 125 76
125 89 0 4 -29 8 -64 9 -178 2 -262 30 -551 187 -124 67 -267 90 -374 60z"/>
<path d="M1638 4807 c-51 -43 -66 -104 -39 -156 6 -11 36 -36 66 -56 51 -32
54 -36 44 -62 -13 -39 -100 -91 -312 -187 -97 -44 -135 -71 -149 -105 -21 -53
-15 -82 42 -191 48 -92 47 -104 -12 -141 -59 -38 -118 -96 -118 -116 0 -7 -4
-13 -9 -13 -5 0 -13 -24 -18 -52 -15 -85 31 -211 68 -187 28 17 135 49 179 52
118 9 217 -36 353 -161 54 -50 115 -96 147 -111 49 -23 68 -26 178 -27 115 -1
124 -2 148 -25 25 -22 57 -81 72 -132 8 -29 7 -214 -2 -250 -3 -15 -18 -58
-32 -95 -80 -209 -80 -215 -5 -365 57 -112 60 -132 38 -222 -25 -107 9 -140
113 -111 33 10 95 18 138 18 75 1 162 21 162 39 0 4 -8 13 -19 18 -17 10 -30
13 -111 25 -90 14 -145 42 -160 81 -26 69 -33 382 -11 485 11 51 43 125 91
211 25 44 32 103 17 139 -6 14 -35 60 -65 103 -30 43 -53 79 -51 80 2 1 13 7
24 13 11 7 95 50 187 98 l167 85 36 -42 c56 -65 122 -168 159 -249 65 -140 72
-245 23 -351 l-26 -58 27 20 c27 19 78 109 88 154 36 164 -44 381 -216 591
-25 30 -50 57 -56 59 -6 3 -24 -1 -40 -8 -16 -8 -60 -26 -99 -41 -88 -34 -138
-56 -246 -109 l-87 -43 -28 38 c-44 58 -59 64 -159 65 -94 1 -134 14 -167 54
-17 20 -17 20 55 17 165 -7 345 80 393 191 19 43 22 159 5 176 -8 8 -11 5 -11
-10 0 -23 -23 -80 -43 -105 -7 -9 -32 -26 -55 -38 -57 -30 -157 -28 -317 6
-44 9 -87 18 -95 19 -8 2 -17 4 -20 5 -4 2 23 10 81 24 66 17 160 92 175 139
10 34 52 86 82 101 16 8 52 14 84 13 53 -2 56 -1 41 15 -18 20 -73 34 -117 30
-15 -1 -58 -16 -95 -32 -71 -31 -130 -46 -171 -44 -92 6 -149 20 -243 63 -101
46 -170 41 -237 -19 -25 -22 -49 -40 -55 -40 -34 1 -57 56 -44 106 21 77 238
133 549 140 158 3 236 -6 312 -39 30 -12 36 -13 32 -2 -7 17 -68 65 -83 65 -6
0 -11 4 -11 8 0 7 -83 38 -128 47 -37 7 -108 44 -127 65 -16 17 -20 38 -22
103 -1 45 -4 92 -7 103 -8 30 -52 45 -130 46 -91 1 -108 21 -81 91 10 24 -14
22 -47 -6z"/>
<path d="M4182 4703 c-28 -93 -33 -148 -19 -213 14 -65 26 -82 148 -207 49
-51 93 -102 98 -114 4 -12 10 -18 14 -13 3 6 -5 41 -19 80 -13 38 -24 75 -24
81 0 22 51 47 95 47 37 0 135 -38 170 -66 153 -122 188 -141 236 -133 48 9 90
36 116 75 32 47 29 52 -19 30 -78 -35 -145 -23 -237 45 -34 25 -70 54 -81 65
-43 43 -121 72 -205 76 -104 6 -127 9 -156 24 -68 36 -103 112 -100 218 1 23
0 42 -2 42 -2 0 -9 -17 -15 -37z"/>
<path d="M3099 4713 c-5 -104 -62 -229 -124 -269 -48 -32 -137 -50 -228 -48
-76 2 -86 0 -70 -11 31 -22 143 -56 195 -60 138 -10 257 107 261 255 2 69 -11
150 -24 150 -5 0 -9 -8 -10 -17z"/>
<path d="M4524 3810 c18 -80 29 -130 34 -165 7 -46 6 -288 -2 -490 -3 -95 -1
-159 8 -200 27 -125 6 -157 -150 -236 -179 -89 -197 -118 -117 -188 124 -110
357 -173 538 -146 48 7 188 46 195 55 3 3 19 11 35 18 17 8 52 28 79 45 65 41
87 43 125 11 41 -34 70 -93 133 -267 47 -130 52 -149 50 -218 -3 -76 -2 -77
43 -143 46 -68 67 -129 59 -174 -3 -14 -11 -51 -18 -83 -12 -52 -12 -61 2 -89
35 -63 149 -161 205 -175 77 -20 52 171 -63 470 -68 178 -102 269 -105 285
-20 93 -146 504 -167 543 -21 40 -120 55 -218 33 -25 -6 -40 7 -40 36 0 41
175 198 222 198 24 0 80 -51 136 -124 25 -34 50 -62 54 -64 4 -2 8 -9 8 -16 0
-7 14 -25 30 -41 17 -16 30 -35 30 -42 0 -7 4 -13 8 -13 4 0 18 -21 31 -47 21
-42 26 -60 35 -122 2 -8 -3 -48 -9 -90 -7 -42 -11 -83 -9 -91 1 -8 3 -23 3
-34 1 -26 73 -94 157 -149 107 -70 127 -61 105 44 -16 82 -79 266 -126 374 -7
17 -32 75 -55 130 -52 122 -188 388 -229 449 -17 25 -31 47 -31 49 0 14 -63
69 -92 81 -49 21 -80 2 -185 -111 -124 -133 -170 -153 -216 -90 -28 38 -38 64
-67 175 -26 102 -75 207 -142 309 -29 43 -55 80 -58 83 -3 3 -18 21 -34 40
-33 40 -130 143 -170 180 l-28 25 6 -25z"/>
<path d="M1246 3263 c-1 -1 -20 -5 -42 -9 -113 -18 -201 -93 -248 -212 -9 -24
-18 -56 -20 -70 -20 -154 -66 -266 -143 -348 -26 -29 -102 -94 -168 -146 -116
-91 -205 -180 -205 -204 0 -7 -4 -14 -8 -16 -13 -5 -49 -99 -62 -162 -34 -165
35 -357 188 -531 34 -38 52 -42 33 -8 -18 34 -42 157 -42 213 0 120 38 216
116 294 51 50 94 75 265 154 96 44 231 123 274 161 85 75 156 156 156 180 0 5
4 12 10 16 5 3 9 -21 8 -62 -1 -62 10 -191 17 -203 2 -3 6 -25 10 -50 4 -25 8
-47 10 -51 2 -3 7 -21 10 -40 3 -19 8 -41 10 -49 12 -45 18 -128 19 -235 1
-188 -12 -207 -356 -485 -17 -14 -50 -42 -72 -62 -38 -35 -64 -50 -51 -29 3 5
7 22 9 38 7 65 40 134 110 228 84 112 116 190 116 283 0 63 -20 145 -44 177
-22 31 -27 14 -11 -43 22 -85 14 -171 -25 -246 -18 -36 -40 -73 -49 -83 -160
-174 -202 -268 -206 -458 -1 -49 -6 -103 -10 -120 -27 -112 15 -314 96 -450
80 -136 103 -194 103 -265 0 -36 -1 -87 -4 -114 -4 -61 17 -84 76 -80 22 1 80
4 129 5 123 3 147 26 109 102 -36 71 -157 227 -243 314 -118 120 -160 200
-176 331 l-5 44 52 -47 c58 -50 150 -100 214 -113 40 -9 164 -7 214 3 14 2 59
13 100 24 109 27 279 22 376 -11 161 -56 257 -153 289 -293 20 -87 -14 -189
-92 -274 -49 -54 -41 -71 13 -29 89 68 135 158 139 272 7 211 -151 384 -404
440 -100 23 -265 23 -343 0 -16 -5 -31 -8 -98 -21 -39 -8 -162 -9 -200 -2 -53
10 -129 59 -165 106 -44 57 -52 86 -34 121 24 47 162 176 227 212 35 19 72 43
84 53 12 9 25 17 30 17 15 0 97 68 158 130 144 146 174 319 115 665 -16 91
-20 154 -19 280 0 154 18 229 72 310 36 54 111 113 162 129 74 23 171 41 212
41 27 0 48 3 48 6 0 12 -99 49 -187 70 -109 26 -272 32 -363 13 -135 -29 -261
-117 -321 -225 -7 -13 -14 -26 -14 -29 -1 -3 -7 -18 -14 -35 -7 -16 -26 -66
-41 -110 -70 -204 -132 -270 -361 -383 -193 -96 -298 -222 -325 -390 -9 -60
-23 -40 -28 41 -11 181 67 313 279 468 121 89 202 168 255 250 42 66 77 149
86 207 13 79 44 182 65 214 48 74 143 123 247 127 55 2 84 -1 197 -25 17 -3
44 -8 60 -10 l30 -5 -25 14 c-28 16 -137 56 -172 62 -71 14 -195 25 -202 18z"/>
<path d="M429 2788 c0 -2 -2 -23 -5 -48 -3 -25 -17 -69 -31 -98 -20 -43 -37
-61 -96 -100 -83 -55 -106 -84 -114 -140 -7 -53 1 -82 31 -115 31 -33 48 -35
38 -4 -5 12 -7 28 -6 35 1 6 2 22 3 33 2 31 61 83 112 98 58 17 108 56 122 95
6 17 10 34 9 39 -1 4 2 7 7 7 13 0 34 -57 26 -72 -4 -7 1 -5 11 5 29 28 26
132 -6 177 -33 48 -97 104 -101 88z"/>
<path d="M2359 1997 c-103 -38 -149 -97 -199 -252 -23 -71 -69 -165 -82 -165
-4 0 -14 -7 -23 -16 -26 -26 -104 -41 -190 -36 -226 13 -304 -5 -387 -89 -74
-74 -112 -162 -124 -285 l-5 -59 29 50 c46 77 95 128 151 159 44 24 66 28 147
32 54 2 128 -2 173 -10 96 -17 169 -12 228 14 61 27 98 60 162 144 101 134
137 161 124 93 -10 -54 -51 -129 -109 -202 -101 -126 -100 -129 44 -212 179
-104 234 -179 179 -243 -27 -32 -87 -31 -237 4 -123 29 -160 34 -180 21 -8 -5
3 -17 37 -39 65 -40 101 -72 137 -120 25 -33 32 -37 60 -32 17 3 50 8 74 11
23 3 60 7 83 10 22 2 44 7 49 10 5 3 11 1 15 -5 4 -6 10 -8 15 -5 4 3 37 7 72
10 34 3 79 8 98 11 19 3 44 7 55 9 45 6 77 25 71 41 -3 9 -6 17 -6 19 0 3 -28
23 -62 46 -101 68 -223 208 -231 264 -4 33 10 85 24 85 5 0 9 4 9 10 0 9 25
42 60 79 8 9 32 40 53 69 71 97 175 162 382 239 153 57 449 146 560 169 103
20 165 39 165 51 0 12 -21 18 -45 13 -5 -1 -172 -3 -370 -5 -320 -4 -408 0
-520 20 -52 10 -142 37 -263 79 -113 40 -146 42 -223 13z"/>
<path d="M3407 1666 c-53 -14 -67 -24 -51 -34 6 -4 23 -25 37 -47 35 -51 35
-94 1 -124 -50 -43 -61 -101 -35 -188 8 -29 7 -32 -20 -43 -48 -20 -172 4
-284 55 -73 33 -153 48 -228 43 -83 -5 -96 -15 -71 -57 10 -17 22 -31 27 -31
4 0 22 -13 39 -29 43 -40 135 -94 147 -86 15 9 13 41 -4 75 -15 29 -15 30 7
26 13 -3 23 -5 23 -6 0 -1 7 -3 15 -5 8 -1 40 -10 70 -20 48 -14 120 -35 185
-52 11 -3 61 -12 112 -21 79 -13 96 -14 118 -2 31 16 35 31 38 137 4 130 32
146 148 81 133 -74 197 -84 326 -48 112 32 131 33 158 16 29 -19 59 -84 70
-152 5 -27 9 -52 11 -56 1 -5 2 -17 3 -29 0 -11 5 -18 10 -15 13 9 22 72 26
186 3 82 0 116 -13 156 -29 84 -53 98 -161 94 -216 -8 -268 4 -364 82 -117 95
-223 124 -340 94z"/>
<path d="M4693 1580 c-13 -5 -23 -14 -23 -19 0 -5 25 -59 55 -120 30 -61 55
-113 55 -116 0 -2 12 -30 26 -62 14 -32 30 -67 34 -78 46 -113 57 -125 127
-130 45 -3 71 -29 88 -89 33 -115 35 -405 4 -545 -26 -119 -93 -241 -186 -342
-35 -36 -63 -70 -63 -74 0 -20 96 50 168 124 122 123 174 238 174 383 0 89 8
105 43 92 25 -10 27 20 5 75 -25 64 -25 61 3 61 54 1 54 5 -28 251 -95 283
-105 299 -204 299 -57 0 -65 3 -96 33 -36 35 -60 88 -70 158 -8 50 -20 85 -35
94 -19 11 -54 14 -77 5z"/>
<path d="M4460 1275 c-7 -8 -15 -34 -17 -58 -4 -37 0 -49 37 -102 89 -129 130
-194 130 -207 0 -8 4 -18 9 -24 5 -5 14 -27 21 -49 7 -22 28 -79 46 -127 19
-48 36 -105 38 -127 5 -55 -31 -129 -78 -159 -46 -28 -136 -52 -199 -52 -45 0
-48 -2 -36 -17 8 -9 34 -25 59 -37 165 -75 391 67 399 249 2 46 -20 132 -37
145 -7 5 -33 58 -87 175 -17 36 -30 88 -35 130 -8 85 -19 104 -78 136 -27 14
-64 47 -90 81 -47 61 -61 68 -82 43z"/>
<path d="M1734 582 c-43 -35 -52 -90 -24 -145 54 -108 209 -128 254 -33 15 31
15 52 0 98 -6 19 -7 19 -32 -6 -81 -76 -176 -59 -175 32 0 20 4 45 8 55 9 22
-4 22 -31 -1z"/>
</g>
</svg>
