<svg width="64" height="100" viewBox="0 0 64 100" fill="none" xmlns="http://www.w3.org/2000/svg">
<path d="M31.6666 13.3333C32.587 13.3333 33.3332 12.5872 33.3332 11.6668C33.3332 10.7463 32.587 10.0002 31.6666 10.0002C30.7462 10.0002 30 10.7463 30 11.6668C30 12.5872 30.7462 13.3333 31.6666 13.3333Z" fill="#7B4B89"/>
<path d="M56.6665 16.6667H53.3332C53.3332 12.9999 50.3331 10 46.6665 10H43.3332C43.3332 4.33325 38.6665 0 33.3333 0H30C24.3332 0 20 4.33325 20 10H16.6667C12.9999 10 10 12.9999 10 16.6667H6.66667C2.99991 16.6667 0 19.6666 0 23.3333V93.3333C0 96.9999 2.99991 100 6.66667 100H56.6667C60.3332 100 63.3333 96.9999 63.3333 93.3333V23.3333C63.3332 19.6666 60.3333 16.6667 56.6665 16.6667ZM13.3333 16.6667C13.3333 14.6667 14.6667 13.3333 16.6667 13.3333H23.3333V10C23.3333 6.33325 26.3332 3.33333 30 3.33333H33.3333C36.9999 3.33333 40 6.33325 40 10V13.3333H46.6667C48.6667 13.3333 50 14.6667 50 16.6667V20C50 22 48.6667 23.3333 46.6667 23.3333H16.6665C14.6665 23.3333 13.3332 22 13.3332 20V16.6667H13.3333ZM60 93.3333C60 95.3333 58.6667 96.6667 56.6667 96.6667H6.66667C5.00009 96.6667 3.33333 95.3333 3.33333 93.3333V23.3333C3.33333 21.3333 4.66667 20 6.66667 20H10C10 23.6668 12.9999 26.6667 16.6667 26.6667H46.6667C50.3332 26.6667 53.3333 23.6668 53.3333 20H56.6667C58.3332 20 60 21.3333 60 23.3333V93.3333Z" fill="#7B4B89"/>
<path d="M27.6666 70.9999L14.9999 58.3334L12.6665 60.6667L27.6666 75.6668L53.3333 49.6666L50.9999 47.3333L27.6666 70.9999Z" fill="#7B4B89"/>
</svg>
