<svg width="55" height="75" viewBox="0 0 55 75" fill="none" xmlns="http://www.w3.org/2000/svg">
<path d="M27.4999 10C28.2992 10 28.9472 9.44039 28.9472 8.75007C28.9472 8.05975 28.2992 7.50013 27.4999 7.50013C26.7006 7.50013 26.0526 8.05975 26.0526 8.75007C26.0526 9.44039 26.7006 10 27.4999 10Z" fill="white"/>
<path d="M49.2104 12.5H46.3156C46.3156 9.74994 43.7103 7.5 40.5262 7.5H37.6314C37.6314 3.24993 33.5788 0 28.9474 0H26.0526C21.1315 0 17.3684 3.24993 17.3684 7.5H14.4737C11.2894 7.5 8.68421 9.74994 8.68421 12.5H5.78947C2.60519 12.5 0 14.7499 0 17.5V70C0 72.7499 2.60519 75 5.78947 75H49.2105C52.3947 75 55 72.7499 55 70V17.5C54.9998 14.7499 52.3947 12.5 49.2104 12.5ZM11.5789 12.5C11.5789 11 12.7368 10 14.4737 10H20.2632V7.5C20.2632 4.74993 22.8683 2.5 26.0526 2.5H28.9474C32.1315 2.5 34.7368 4.74993 34.7368 7.5V10H40.5263C42.2632 10 43.4211 11 43.4211 12.5V15C43.4211 16.5 42.2632 17.5 40.5263 17.5H14.4735C12.7367 17.5 11.5788 16.5 11.5788 15V12.5H11.5789ZM52.1053 70C52.1053 71.5 50.9474 72.5 49.2105 72.5H5.78947C4.34218 72.5 2.89474 71.5 2.89474 70V17.5C2.89474 16 4.05263 15 5.78947 15H8.68421C8.68421 17.7501 11.2894 20 14.4737 20H40.5263C43.7104 20 46.3158 17.7501 46.3158 15H49.2105C50.6578 15 52.1053 16 52.1053 17.5V70Z" fill="white"/>
<path d="M24.0262 53.2499L13.0262 43.7501L10.9998 45.5L24.0262 56.7501L46.3158 37.2499L44.2894 35.5L24.0262 53.2499Z" fill="white"/>
</svg>
