<svg width="100" height="100" viewBox="0 0 100 100" fill="none" xmlns="http://www.w3.org/2000/svg">
<path d="M87.6141 0C84.4217 0 81.2851 1.24422 78.8787 3.65059L37.5489 44.8501L36.6362 45.7627L36.3755 47.0665L33.5072 61.6688L32.2034 67.7966L38.3312 66.4928L52.9335 63.6245L54.2373 63.3638L55.1499 62.4511L96.3494 21.1213C101.162 16.3085 101.162 8.46333 96.3494 3.65059C93.943 1.24422 90.8064 0 87.6141 0ZM87.6141 8.08344C88.5938 8.08344 89.5511 8.58629 90.4824 9.5176C92.345 11.3802 92.345 13.3916 90.4824 15.2542L50.0652 55.6714L42.8944 57.1056L44.3286 49.9348L84.7458 9.5176C85.6771 8.58629 86.6343 8.08344 87.6141 8.08344ZM0 16.558V100H83.442V44.9804H80V97H3V20H55.0196V16.558H0Z" fill="#7B4B89"/>
</svg>
