<svg width="75" height="75" viewBox="0 0 75 75" fill="none" xmlns="http://www.w3.org/2000/svg">
<path d="M65.7106 0C63.3163 0 60.9638 0.933163 59.1591 2.73794L28.1617 33.6375L27.4772 34.322L27.2816 35.2999L25.1304 46.2516L24.1525 50.8475L28.7484 49.8696L39.7001 47.7184L40.678 47.5228L41.3624 46.8383L72.2621 15.8409C75.8716 12.2314 75.8716 6.34749 72.2621 2.73794C70.4573 0.933163 68.1048 0 65.7106 0ZM65.7106 6.06258C66.4454 6.06258 67.1633 6.43972 67.8618 7.1382C69.2588 8.53517 69.2588 10.0437 67.8618 11.4407L37.5489 41.7536L32.1708 42.8292L33.2464 37.4511L63.5593 7.1382C64.2578 6.43972 64.9757 6.06258 65.7106 6.06258ZM0 12.4185V75H62.5815V33.7353H60V72.75H2.25V15H41.2647V12.4185H0Z" fill="white"/>
</svg>
