<svg width="95" height="97" viewBox="0 0 95 97" fill="none" xmlns="http://www.w3.org/2000/svg">
<path d="M17.7343 30.0392C23.5936 30.0392 28.3983 25.2736 28.3983 19.3751C28.3983 13.4767 23.6327 8.71106 17.7343 8.71106C11.8358 8.71106 7.10926 13.5157 7.10926 19.3751C7.10926 25.2345 11.8749 30.0392 17.7343 30.0392ZM17.7343 12.7736C21.3671 12.7736 24.3749 15.7423 24.3749 19.4142C24.3749 23.0861 21.4061 26.0548 17.7343 26.0548C14.0624 26.0548 11.0936 23.0861 11.0936 19.4142C11.0936 15.7423 14.1014 12.7736 17.7343 12.7736Z" fill="#7B4B89"/>
<path d="M30.3516 42.3827C29.2578 42.3046 28.2812 43.164 28.2031 44.2577L26.5625 67.6562C26.5625 67.7343 26.5234 67.7734 26.5234 67.8515L25.0391 90.6249C25 91.4843 24.2578 92.1874 23.3984 92.1874H12.0703C11.2109 92.1874 10.4688 91.5234 10.4297 90.6249L8.94531 67.8515C8.90625 67.0312 8.32031 66.289 7.53906 66.0546C7.10938 65.9374 5.85938 65.5468 5.66406 65.3515C5.50781 65.1171 5.42969 63.8671 5.39063 63.2421L4.02344 39.1015V39.0624C6.5625 38.3202 9.0625 37.4999 11.6016 36.6796C12.7344 38.0077 13.8672 39.2968 15.0391 40.6249L16.25 41.9921C16.6406 42.4218 17.1875 42.6952 17.7734 42.6952C18.3594 42.6952 18.9062 42.4609 19.2969 41.9921L20.7031 40.3905C21.8359 39.1015 22.8906 37.8905 23.9453 36.6405L41.4453 40.5859C41.7188 40.664 42.0312 40.664 42.3047 40.5859L58.0859 37.3437C59.1797 37.1093 59.8828 36.0546 59.6484 34.9609C59.4141 33.8671 58.3594 33.164 57.2656 33.3984L41.9141 36.5624L24.6484 32.6562C24.5703 32.6171 24.4531 32.6171 24.375 32.6171C23.8672 32.5781 22.1484 32.539 21.0938 33.789C20 35.0781 18.9062 36.328 17.7734 37.6171C16.6406 36.328 15.5469 35.0781 14.4531 33.789C13.4375 32.6171 12.1484 32.2265 10.7422 32.6952C8.04688 33.5937 5.35156 34.453 2.65625 35.2734C0.9375 35.8202 0 37.1093 0 38.8671C0 38.9843 0 39.2968 0 39.3359L1.32812 63.164L1.36719 63.5546C1.60156 67.0312 2.10938 68.3593 5.03906 69.4921L6.44531 90.9374C6.64062 93.9062 9.14063 96.2499 12.1094 96.2499H23.4375C26.4062 96.2499 28.9062 93.9062 29.1016 90.9374L30.5859 68.3593C30.5859 68.2812 30.5859 68.2421 30.625 68.164L32.2656 44.5702C32.2656 43.4374 31.4453 42.4609 30.3516 42.3827Z" fill="#7B4B89"/>
<path d="M92.2264 0H17.7343C16.6405 0 15.703 0.898438 15.703 2.03125C15.703 3.16406 16.6014 4.0625 17.7343 4.0625H90.1952V56.4062H36.7577C35.6639 56.4062 34.7264 57.3047 34.7264 58.4375C34.7264 59.5312 35.6249 60.4688 36.7577 60.4688H92.2264C93.3202 60.4688 94.2577 59.5703 94.2577 58.4375V2.03125C94.2577 0.9375 93.3593 0 92.2264 0Z" fill="#7B4B89"/>
</svg>
