<svg width="74" height="75" viewBox="0 0 74 75" fill="none" xmlns="http://www.w3.org/2000/svg">
<path d="M13.8189 23.4072C18.3847 23.4072 22.1286 19.6937 22.1286 15.0975C22.1286 10.5013 18.4151 6.78784 13.8189 6.78784C9.22272 6.78784 5.53968 10.5318 5.53968 15.0975C5.53968 19.6633 9.25316 23.4072 13.8189 23.4072ZM13.8189 9.95343C16.6497 9.95343 18.9934 12.2667 18.9934 15.1279C18.9934 17.9891 16.6801 20.3025 13.8189 20.3025C10.9577 20.3025 8.64439 17.9891 8.64439 15.1279C8.64439 12.2667 10.9881 9.95343 13.8189 9.95343Z" fill="white"/>
<path d="M23.6506 33.0255C22.7983 32.9647 22.0374 33.6343 21.9765 34.4866L20.6981 52.7191C20.6981 52.78 20.6676 52.8105 20.6676 52.8713L19.511 70.6169C19.4805 71.2865 18.9022 71.8344 18.2326 71.8344H9.40544C8.7358 71.8344 8.15747 71.317 8.12703 70.6169L6.97038 52.8713C6.93994 52.2321 6.48337 51.6538 5.8746 51.4712C5.53978 51.3798 4.56575 51.0755 4.41356 50.9233C4.2918 50.7406 4.23093 49.7666 4.20049 49.2796L3.13515 30.4687V30.4383C5.11364 29.8599 7.06169 29.2207 9.04018 28.5815C9.9229 29.6164 10.8056 30.6209 11.7188 31.6558L12.6623 32.7212C12.9667 33.056 13.3929 33.269 13.8494 33.269C14.306 33.269 14.7322 33.0864 15.0365 32.7212L16.1323 31.4732C17.015 30.4687 17.8369 29.5251 18.6587 28.5511L32.2951 31.6254C32.5081 31.6862 32.7516 31.6862 32.9647 31.6254L45.2618 29.099C46.1141 28.9164 46.662 28.0945 46.4793 27.2423C46.2967 26.39 45.4749 25.8421 44.6226 26.0247L32.6603 28.4902L19.2066 25.4464C19.1457 25.416 19.0544 25.416 18.9935 25.416C18.5978 25.3855 17.2585 25.3551 16.4367 26.3291C15.5844 27.3336 14.7322 28.3076 13.8494 29.3121C12.9667 28.3076 12.1145 27.3336 11.2622 26.3291C10.4708 25.416 9.46632 25.1116 8.37054 25.4768C6.2703 26.1769 4.17005 26.8466 2.06981 27.4858C0.73052 27.9119 0 28.9164 0 30.2861C0 30.3774 0 30.6209 0 30.6513L1.0349 49.2187L1.06534 49.5231C1.24797 52.2321 1.64367 53.267 3.92654 54.1497L5.02232 70.8604C5.17452 73.1737 7.12257 75 9.43588 75H18.263C20.5763 75 22.5244 73.1737 22.6766 70.8604L23.8332 53.267C23.8332 53.2062 23.8332 53.1757 23.8637 53.1148L25.1421 34.7301C25.1421 33.8474 24.5029 33.0864 23.6506 33.0255Z" fill="white"/>
<path d="M71.8648 0H13.8189C12.9666 0 12.2361 0.700082 12.2361 1.58279C12.2361 2.46551 12.9362 3.16559 13.8189 3.16559H70.282V43.953H28.6424C27.7901 43.953 27.0596 44.653 27.0596 45.5357C27.0596 46.388 27.7597 47.1185 28.6424 47.1185H71.8648C72.7171 47.1185 73.4476 46.4185 73.4476 45.5357V1.58279C73.4476 0.73052 72.7475 0 71.8648 0Z" fill="white"/>
</svg>
