<svg width="162" height="38" viewBox="0 0 162 38" fill="none" xmlns="http://www.w3.org/2000/svg">
<path d="M31.573 15.749C31.573 19.9731 29.906 23.8089 27.1925 26.6372C24.3187 29.6326 15.7865 37.9628 15.7865 37.9628C15.7865 37.9628 7.25439 29.6326 4.38053 26.6372C1.66701 23.8089 0 19.9731 0 15.749C0 7.05106 7.06787 0 15.7865 0C24.5052 0 31.573 7.05106 31.573 15.749Z" fill="#D2D6E3"/>
<path d="M40.8019 11.1754V7.38288H43.8373C44.1875 7.38288 44.4677 7.4879 44.6895 7.70962C44.8997 7.93134 45.0047 8.22308 45.0047 8.60817V9.89181C45.0047 10.3352 45.1332 10.6737 45.3783 10.9187C45.6235 11.1638 45.9621 11.2921 46.4057 11.2921H46.7559V10.767H46.4057C45.857 10.767 45.5885 10.4753 45.5885 9.89181V8.60817C45.5885 8.26975 45.5301 8.01303 45.4133 7.81465C45.2966 7.61627 45.1682 7.46456 45.0281 7.35954C44.8646 7.23117 44.6778 7.14949 44.4794 7.11448V7.0678C44.6662 7.03279 44.8296 6.95111 44.9697 6.83441C45.0981 6.72939 45.2149 6.58935 45.3199 6.40264C45.425 6.21593 45.4717 5.9592 45.4717 5.63246V4.40717C45.4717 3.8237 45.7402 3.53196 46.2889 3.53196H46.6392V3.00684H46.2889C45.8453 3.00684 45.5067 3.12353 45.2616 3.36859C45.0164 3.61365 44.888 3.96373 44.888 4.40717V5.63246C44.888 6.01755 44.7829 6.30929 44.5728 6.53101C44.351 6.75273 44.0708 6.85775 43.7205 6.85775H40.8019V3.12353H40.2181V11.1754H40.8019Z" fill="white"/>
<path d="M49.7293 9.0166H54.6326L55.158 11.1754H55.7417L53.8154 3.12353H50.5465L48.6202 11.1754H49.2039L49.7293 9.0166ZM49.8461 8.49147L51.0135 3.64866H53.3484L54.5159 8.49147H49.8461Z" fill="white"/>
<path d="M64.6135 5.9242C64.6135 5.52744 64.5435 5.15401 64.3917 4.8156C64.2399 4.47719 64.0415 4.18545 63.773 3.92872C63.5044 3.68366 63.1892 3.48528 62.8156 3.33358C62.4421 3.19355 62.0334 3.12353 61.5781 3.12353H58.3092V11.1754H58.893V8.72486H61.5781C62.0334 8.72486 62.4421 8.65485 62.8156 8.50314C63.1892 8.36311 63.5044 8.16473 63.773 7.908C64.0415 7.66294 64.2399 7.35954 64.3917 7.02112C64.5435 6.68271 64.6135 6.32096 64.6135 5.9242ZM64.0298 5.9242C64.0298 6.23927 63.9714 6.54268 63.8547 6.82274C63.7379 7.10281 63.5745 7.34787 63.3527 7.54625C63.1309 7.74463 62.874 7.908 62.5821 8.0247C62.2786 8.14139 61.94 8.19974 61.5781 8.19974H58.893V3.64866H61.5781C61.94 3.64866 62.2786 3.707 62.5821 3.8237C62.874 3.94039 63.1309 4.10376 63.3527 4.30214C63.5745 4.51219 63.7379 4.75725 63.8547 5.02565C63.9714 5.30572 64.0298 5.60912 64.0298 5.9242Z" fill="white"/>
<path d="M66.5946 3.64866H69.5132V11.1754H70.097V3.64866H73.0156V3.12353H66.5946V3.64866Z" fill="white"/>
<path d="M75.1786 9.0166H80.0819L80.6073 11.1754H81.191L79.2647 3.12353H75.9958L74.0695 11.1754H74.6533L75.1786 9.0166ZM75.2954 8.49147L76.4628 3.64866H78.7977L79.9652 8.49147H75.2954Z" fill="white"/>
<path d="M45.7636 15.7654L40.8602 22.8254H40.8019V15.7654H40.2181V23.8173H40.8602L45.7636 16.7573H45.822V23.8173H46.4057V15.7654H45.7636Z" fill="white"/>
<path d="M49.6741 15.7654V23.8173H50.2579V20.0248H55.1612V23.8173H55.7449V15.7654H55.1612V19.4996H50.2579V15.7654H49.6741Z" fill="white"/>
<path d="M59.0161 15.7654V23.8173H59.5998V20.0248H64.5032V23.8173H65.0869V15.7654H64.5032V19.4996H59.5998V15.7654H59.0161Z" fill="white"/>
<path d="M75.7131 19.7914C75.7131 20.3165 75.608 20.8183 75.4095 21.2851C75.2111 21.7518 74.9426 22.1603 74.604 22.5104C74.2654 22.8604 73.8802 23.1405 73.4482 23.3389C73.0162 23.5373 72.5609 23.6423 72.094 23.6423C71.627 23.6423 71.1717 23.5373 70.7397 23.3389C70.3077 23.1405 69.9225 22.8604 69.5839 22.5104C69.2453 22.1603 68.9768 21.7518 68.7784 21.2851C68.5799 20.8183 68.4748 20.3165 68.4748 19.7914C68.4748 19.2663 68.5799 18.7761 68.7784 18.3094C68.9768 17.8426 69.2453 17.4342 69.5839 17.0841C69.9225 16.734 70.3077 16.4539 70.7397 16.2439C71.1717 16.0455 71.627 15.9405 72.094 15.9405C72.5609 15.9405 73.0162 16.0455 73.4482 16.2439C73.8802 16.4539 74.2654 16.734 74.604 17.0841C74.9426 17.4342 75.2111 17.8426 75.4095 18.3094C75.608 18.7761 75.7131 19.2663 75.7131 19.7914ZM67.8911 19.7914C67.8911 20.3865 68.0078 20.9583 68.2413 21.4834C68.4631 22.0086 68.7784 22.4754 69.1636 22.8721C69.5489 23.2689 69.9925 23.5839 70.5062 23.8173C71.0082 24.0507 71.5452 24.1674 72.094 24.1674C72.6427 24.1674 73.1797 24.0507 73.6934 23.8173C74.1954 23.5839 74.6507 23.2689 75.036 22.8721C75.4212 22.4754 75.7248 22.0086 75.9583 21.4834C76.1801 20.9583 76.2968 20.3865 76.2968 19.7914C76.2968 19.1962 76.1801 18.6244 75.9583 18.0993C75.7248 17.5742 75.4212 17.1074 75.036 16.7106C74.6507 16.3139 74.1954 15.9988 73.6934 15.7654C73.1797 15.532 72.6427 15.4153 72.094 15.4153C71.5452 15.4153 71.0082 15.532 70.5062 15.7654C69.9925 15.9988 69.5489 16.3139 69.1636 16.7106C68.7784 17.1074 68.4631 17.5742 68.2413 18.0993C68.0078 18.6244 67.8911 19.1962 67.8911 19.7914Z" fill="white"/>
<path d="M79.6861 16.2905H82.488C82.7332 16.2905 82.9667 16.3256 83.1651 16.3956C83.3636 16.4773 83.5387 16.5823 83.6788 16.7106C83.8189 16.839 83.924 17.0024 84.0057 17.1774C84.0874 17.3525 84.1225 17.5508 84.1225 17.7492C84.1225 18.1927 83.9707 18.5544 83.6788 18.8345C83.387 19.1262 82.99 19.2663 82.488 19.2663H79.6861V16.2905ZM83.0717 23.2922H79.6861V19.7914H83.0717C83.3636 19.7914 83.6205 19.8381 83.8656 19.9197C84.0991 20.0131 84.2976 20.1415 84.4727 20.2932C84.6478 20.4449 84.7762 20.6316 84.8696 20.8416C84.9514 21.0633 84.9981 21.2967 84.9981 21.5418C84.9981 21.7869 84.9514 22.0202 84.8696 22.2303C84.7762 22.452 84.6478 22.6387 84.4727 22.7904C84.2976 22.9421 84.0991 23.0705 83.8656 23.1522C83.6205 23.2455 83.3636 23.2922 83.0717 23.2922ZM82.488 15.7654H79.1024V23.8173H83.0717C83.4337 23.8173 83.7722 23.759 84.0874 23.6306C84.391 23.5139 84.6595 23.3506 84.8813 23.1405C85.1031 22.9305 85.2666 22.6854 85.395 22.4053C85.5234 22.1369 85.5818 21.8452 85.5818 21.5418C85.5818 21.3084 85.5584 21.0984 85.5001 20.9116C85.4417 20.7366 85.36 20.5732 85.2666 20.4215C85.1732 20.2815 85.0681 20.1531 84.9514 20.0481C84.8346 19.9431 84.7179 19.8614 84.5894 19.7914C84.2976 19.6163 83.959 19.4996 83.5971 19.4413V19.3829C83.7956 19.3129 83.9824 19.2079 84.1458 19.0679C84.2859 18.9395 84.4143 18.7761 84.5311 18.5661C84.6478 18.3677 84.7062 18.0876 84.7062 17.7492C84.7062 17.4808 84.6478 17.2358 84.5427 16.9907C84.4377 16.7573 84.2859 16.5473 84.0874 16.3606C83.889 16.1855 83.6438 16.0338 83.3753 15.9288C83.1068 15.8238 82.8032 15.7654 82.488 15.7654Z" fill="white"/>
<path d="M88.6705 21.6585H93.5739L94.0992 23.8173H94.683L92.7567 15.7654H89.4878L87.5615 23.8173H88.1452L88.6705 21.6585ZM88.7873 21.1334L89.9548 16.2905H92.2897L93.4571 21.1334H88.7873Z" fill="white"/>
<path d="M97.2505 23.8173H103.438V25.3344H104.022V23.2922H103.088V15.7654H102.504V23.2922H97.8342V15.7654H97.2505V23.8173Z" fill="white"/>
<path d="M112.024 15.7654L107.121 22.8254H107.062V15.7654H106.478V23.8173H107.121L112.024 16.7573H112.082V23.8173H112.666V15.7654H112.024Z" fill="white"/>
<path d="M123.289 19.7914C123.289 20.3165 123.184 20.8183 122.986 21.2851C122.787 21.7518 122.519 22.1603 122.18 22.5104C121.842 22.8604 121.457 23.1405 121.025 23.3389C120.593 23.5373 120.137 23.6423 119.67 23.6423C119.203 23.6423 118.748 23.5373 118.316 23.3389C117.884 23.1405 117.499 22.8604 117.16 22.5104C116.822 22.1603 116.553 21.7518 116.355 21.2851C116.156 20.8183 116.051 20.3165 116.051 19.7914C116.051 19.2663 116.156 18.7761 116.355 18.3094C116.553 17.8426 116.822 17.4342 117.16 17.0841C117.499 16.734 117.884 16.4539 118.316 16.2439C118.748 16.0455 119.203 15.9405 119.67 15.9405C120.137 15.9405 120.593 16.0455 121.025 16.2439C121.457 16.4539 121.842 16.734 122.18 17.0841C122.519 17.4342 122.787 17.8426 122.986 18.3094C123.184 18.7761 123.289 19.2663 123.289 19.7914ZM115.467 19.7914C115.467 20.3865 115.584 20.9583 115.818 21.4834C116.039 22.0086 116.355 22.4754 116.74 22.8721C117.125 23.2689 117.569 23.5839 118.083 23.8173C118.585 24.0507 119.122 24.1674 119.67 24.1674C120.219 24.1674 120.756 24.0507 121.27 23.8173C121.772 23.5839 122.227 23.2689 122.612 22.8721C122.998 22.4754 123.301 22.0086 123.535 21.4834C123.756 20.9583 123.873 20.3865 123.873 19.7914C123.873 19.1962 123.756 18.6244 123.535 18.0993C123.301 17.5742 122.998 17.1074 122.612 16.7106C122.227 16.3139 121.772 15.9988 121.27 15.7654C120.756 15.532 120.219 15.4153 119.67 15.4153C119.122 15.4153 118.585 15.532 118.083 15.7654C117.569 15.9988 117.125 16.3139 116.74 16.7106C116.355 17.1074 116.039 17.5742 115.818 18.0993C115.584 18.6244 115.467 19.1962 115.467 19.7914Z" fill="white"/>
<path d="M126.679 15.7654V23.8173H127.262V20.0248H132.166V23.8173H132.75V15.7654H132.166V19.4996H127.262V15.7654H126.679Z" fill="white"/>
<path d="M136.021 15.7654V23.8173H136.604V20.0248H141.508V23.8173H142.091V15.7654H141.508V19.4996H136.604V15.7654H136.021Z" fill="white"/>
<path d="M151.083 21.1917C151.083 20.83 151.013 20.4799 150.873 20.1648C150.733 19.8497 150.535 19.5697 150.289 19.3246C150.044 19.0912 149.741 18.9045 149.39 18.7645C149.028 18.6361 148.643 18.5661 148.223 18.5661H145.946V15.7654H145.363V23.8173H148.223C148.643 23.8173 149.028 23.7473 149.39 23.6073C149.741 23.4789 150.044 23.2922 150.289 23.0472C150.535 22.8138 150.733 22.5337 150.873 22.2186C151.013 21.9035 151.083 21.5535 151.083 21.1917ZM150.499 21.1917C150.499 21.4834 150.441 21.7635 150.336 22.0086C150.219 22.2653 150.068 22.487 149.869 22.6737C149.671 22.8721 149.425 23.0238 149.145 23.1288C148.865 23.2339 148.562 23.2922 148.223 23.2922H145.946V19.0912H148.223C148.562 19.0912 148.865 19.1496 149.145 19.2546C149.425 19.3596 149.671 19.5113 149.869 19.698C150.068 19.8964 150.219 20.1181 150.336 20.3749C150.441 20.6316 150.499 20.9 150.499 21.1917ZM152.951 23.8173V15.7654H152.367V23.8173H152.951Z" fill="white"/>
<path d="M161.766 15.7654H161.124L158.731 19.1496H158.673L156.279 15.7654H155.637L158.381 19.6163L155.404 23.8173H156.046L158.673 20.0831H158.731L161.358 23.8173H162L159.023 19.6163L161.766 15.7654Z" fill="white"/>
<path d="M46.5224 31.208C46.5224 30.8112 46.4524 30.4378 46.3006 30.0994C46.1488 29.761 45.9504 29.4692 45.6819 29.2125C45.4133 28.9674 45.0981 28.7691 44.7245 28.6174C44.351 28.4773 43.9423 28.4073 43.487 28.4073H40.2181V36.4592H40.8019V34.0086H43.487C43.9423 34.0086 44.351 33.9386 44.7245 33.7869C45.0981 33.6469 45.4133 33.4485 45.6819 33.1918C45.9504 32.9467 46.1488 32.6433 46.3006 32.3049C46.4524 31.9665 46.5224 31.6047 46.5224 31.208ZM45.9387 31.208C45.9387 31.5231 45.8803 31.8265 45.7636 32.1065C45.6468 32.3866 45.4834 32.6317 45.2616 32.83C45.0398 33.0284 44.7829 33.1918 44.4911 33.3085C44.1875 33.4252 43.8489 33.4835 43.487 33.4835H40.8019V28.9324H43.487C43.8489 28.9324 44.1875 28.9908 44.4911 29.1075C44.7829 29.2242 45.0398 29.3876 45.2616 29.5859C45.4834 29.796 45.6468 30.041 45.7636 30.3094C45.8803 30.5895 45.9387 30.8929 45.9387 31.208Z" fill="white"/>
<path d="M54.9245 35.9341H49.9044V32.6667H53.8738V32.1415H49.9044V28.9324H54.9245V28.4073H49.3207V36.4592H54.9245V35.9341Z" fill="white"/>
<path d="M57.4884 28.4073V36.4592H66.9448V28.4073H66.3611V35.9341H62.5085V28.4073H61.9247V35.9341H58.0721V28.4073H57.4884Z" fill="white"/>
<path d="M75.8203 35.9341H70.8002V32.6667H74.7695V32.1415H70.8002V28.9324H75.8203V28.4073H70.2164V36.4592H75.8203V35.9341Z" fill="white"/>
<path d="M78.3841 28.4073V36.4592H78.9678V32.6667H83.8712V36.4592H84.4549V28.4073H83.8712V32.1415H78.9678V28.4073H78.3841Z" fill="white"/>
<path d="M93.2715 28.4073L88.3682 35.4673H88.3098V28.4073H87.7261V36.4592H88.3682L93.2715 29.3992H93.3299V36.4592H93.9136V28.4073H93.2715Z" fill="white"/>
<path d="M100.276 27.3571C100.719 27.3571 101.081 27.217 101.373 26.9253C101.653 26.6452 101.794 26.2835 101.794 25.84H101.327C101.327 26.1318 101.221 26.3885 101.023 26.5869C100.825 26.7853 100.568 26.8903 100.276 26.8903C99.984 26.8903 99.7271 26.7853 99.5287 26.5869C99.3302 26.3885 99.2251 26.1318 99.2251 25.84H98.7581C98.7581 26.2835 98.8982 26.6452 99.1901 26.9253C99.4703 27.217 99.8322 27.3571 100.276 27.3571ZM102.728 28.4073L97.8242 35.4673H97.7658V28.4073H97.1821V36.4592H97.8242L102.728 29.3992H102.786V36.4592H103.37V28.4073H102.728Z" fill="white"/>
<mask id="path-3-inside-1_117_3" fill="white">
<path fill-rule="evenodd" clip-rule="evenodd" d="M22.8598 20.5575C23.7777 19.1933 24.3133 17.5505 24.3133 15.7826C24.3133 11.0525 20.4789 7.21802 15.7488 7.21802C11.0187 7.21802 7.1842 11.0525 7.1842 15.7826C7.1842 17.5507 7.71997 19.1936 8.638 20.5579L15.7491 13.4468L22.8598 20.5575Z"/>
</mask>
<path fill-rule="evenodd" clip-rule="evenodd" d="M22.8598 20.5575C23.7777 19.1933 24.3133 17.5505 24.3133 15.7826C24.3133 11.0525 20.4789 7.21802 15.7488 7.21802C11.0187 7.21802 7.1842 11.0525 7.1842 15.7826C7.1842 17.5507 7.71997 19.1936 8.638 20.5579L15.7491 13.4468L22.8598 20.5575Z" fill="#E53151"/>
<path d="M22.8598 20.5575L18.6172 24.8002L23.77 29.953L27.8379 23.9069L22.8598 20.5575ZM8.638 20.5579L3.66004 23.9075L7.72806 29.9531L12.8806 24.8006L8.638 20.5579ZM15.7491 13.4468L19.9917 9.20419L15.7491 4.96155L11.5064 9.20419L15.7491 13.4468ZM18.3133 15.7826C18.3133 16.3204 18.1543 16.8029 17.8817 17.2082L27.8379 23.9069C29.401 21.5837 30.3133 18.7806 30.3133 15.7826H18.3133ZM15.7488 13.218C17.1651 13.218 18.3133 14.3662 18.3133 15.7826H30.3133C30.3133 7.7388 23.7926 1.21802 15.7488 1.21802V13.218ZM13.1842 15.7826C13.1842 14.3662 14.3324 13.218 15.7488 13.218V1.21802C7.70498 1.21802 1.1842 7.7388 1.1842 15.7826H13.1842ZM13.616 17.2083C13.3432 16.803 13.1842 16.3205 13.1842 15.7826H1.1842C1.1842 18.7809 2.0967 21.5842 3.66004 23.9075L13.616 17.2083ZM12.8806 24.8006L19.9917 17.6895L11.5064 9.20419L4.39536 16.3153L12.8806 24.8006ZM11.5064 17.6895L18.6172 24.8002L27.1024 16.3149L19.9917 9.20419L11.5064 17.6895Z" fill="#E53151" mask="url(#path-3-inside-1_117_3)"/>
<rect x="11.7586" y="29.9919" width="5.64315" height="5.64315" transform="rotate(-45 11.7586 29.9919)" stroke="black" stroke-width="5.64315"/>
<rect x="7.7286" y="25.7097" width="11.3424" height="11.3424" transform="rotate(-45 7.7286 25.7097)" fill="#0054D1" stroke="#0054D1" stroke-width="6"/>
</svg>
