<svg width="163" height="38" viewBox="0 0 163 38" fill="none" xmlns="http://www.w3.org/2000/svg">
<path d="M31.5958 15.7604C31.5958 19.9876 29.9276 23.8261 27.2122 26.6564C24.3362 29.654 15.7979 37.9902 15.7979 37.9902C15.7979 37.9902 7.25963 29.654 4.3837 26.6564C1.66821 23.8261 0 19.9876 0 15.7604C0 7.05615 7.07297 0 15.7979 0C24.5229 0 31.5958 7.05615 31.5958 15.7604Z" fill="#D2D6E3"/>
<path d="M40.8312 11.1835V7.38823H43.8688C44.2193 7.38823 44.4997 7.49334 44.7217 7.71521C44.932 7.93709 45.0371 8.22904 45.0371 8.61441V9.89898C45.0371 10.3427 45.1656 10.6814 45.411 10.9266C45.6563 11.1719 45.9951 11.3003 46.4391 11.3003H46.7896V10.7748H46.4391C45.89 10.7748 45.6213 10.4829 45.6213 9.89898V8.61441C45.6213 8.27575 45.5629 8.01884 45.446 7.82031C45.3292 7.62179 45.2007 7.46998 45.0605 7.36488C44.8969 7.23642 44.71 7.15468 44.5114 7.11964V7.07293C44.6983 7.0379 44.8619 6.95615 45.0021 6.83937C45.1306 6.73427 45.2474 6.59414 45.3526 6.40729C45.4577 6.22045 45.5044 5.96353 45.5044 5.63655V4.41038C45.5044 3.82648 45.7732 3.53454 46.3223 3.53454H46.6727V3.00903H46.3223C45.8783 3.00903 45.5395 3.12581 45.2941 3.37105C45.0488 3.61628 44.9203 3.96662 44.9203 4.41038V5.63655C44.9203 6.02192 44.8151 6.31387 44.6048 6.53575C44.3829 6.75763 44.1025 6.86273 43.752 6.86273H40.8312V3.12581H40.2471V11.1835H40.8312Z" fill="black"/>
<path d="M49.7651 9.02314H54.672L55.1977 11.1835H55.7819L53.8542 3.12581H50.5829L48.6552 11.1835H49.2394L49.7651 9.02314ZM49.8819 8.49763L51.0502 3.65132H53.3868L54.5552 8.49763H49.8819Z" fill="black"/>
<path d="M64.6601 5.9285C64.6601 5.53145 64.59 5.15776 64.4381 4.8191C64.2862 4.48045 64.0876 4.1885 63.8189 3.93158C63.5502 3.68635 63.2347 3.48783 62.8609 3.33601C62.487 3.19588 62.0781 3.12581 61.6225 3.12581H58.3512V11.1835H58.9354V8.73119H61.6225C62.0781 8.73119 62.487 8.66112 62.8609 8.50931C63.2347 8.36917 63.5502 8.17065 63.8189 7.91374C64.0876 7.6685 64.2862 7.36488 64.4381 7.02622C64.59 6.68756 64.6601 6.32555 64.6601 5.9285ZM64.0759 5.9285C64.0759 6.2438 64.0175 6.54743 63.9007 6.8277C63.7838 7.10797 63.6203 7.3532 63.3983 7.55172C63.1763 7.75025 62.9193 7.91374 62.6272 8.03052C62.3235 8.1473 61.9847 8.20568 61.6225 8.20568H58.9354V3.65132H61.6225C61.9847 3.65132 62.3235 3.70971 62.6272 3.82648C62.9193 3.94326 63.1763 4.10675 63.3983 4.30528C63.6203 4.51548 63.7838 4.76071 63.9007 5.0293C64.0175 5.30957 64.0759 5.6132 64.0759 5.9285Z" fill="black"/>
<path d="M66.6425 3.65132H69.5633V11.1835H70.1475V3.65132H73.0682V3.12581H66.6425V3.65132Z" fill="black"/>
<path d="M75.2328 9.02314H80.1397L80.6654 11.1835H81.2495L79.3218 3.12581H76.0506L74.1229 11.1835H74.707L75.2328 9.02314ZM75.3496 8.49763L76.5179 3.65132H78.8545L80.0228 8.49763H75.3496Z" fill="black"/>
<path d="M45.7965 15.7768L40.8896 22.8419H40.8312V15.7768H40.2471V23.8346H40.8896L45.7965 16.7695H45.8549V23.8346H46.4391V15.7768H45.7965Z" fill="black"/>
<path d="M49.7099 15.7768V23.8346H50.294V20.0393H55.2009V23.8346H55.7851V15.7768H55.2009V19.5138H50.294V15.7768H49.7099Z" fill="black"/>
<path d="M59.0586 15.7768V23.8346H59.6428V20.0393H64.5496V23.8346H65.1338V15.7768H64.5496V19.5138H59.6428V15.7768H59.0586Z" fill="black"/>
<path d="M75.7676 19.8057C75.7676 20.3312 75.6625 20.8334 75.4639 21.3005C75.2653 21.7676 74.9966 22.1763 74.6578 22.5266C74.3189 22.877 73.9334 23.1572 73.5011 23.3558C73.0689 23.5543 72.6132 23.6594 72.1459 23.6594C71.6786 23.6594 71.2229 23.5543 70.7907 23.3558C70.3584 23.1572 69.9729 22.877 69.634 22.5266C69.2952 22.1763 69.0265 21.7676 68.8279 21.3005C68.6293 20.8334 68.5242 20.3312 68.5242 19.8057C68.5242 19.2802 68.6293 18.7897 68.8279 18.3226C69.0265 17.8555 69.2952 17.4468 69.634 17.0964C69.9729 16.7461 70.3584 16.4658 70.7907 16.2556C71.2229 16.0571 71.6786 15.952 72.1459 15.952C72.6132 15.952 73.0689 16.0571 73.5011 16.2556C73.9334 16.4658 74.3189 16.7461 74.6578 17.0964C74.9966 17.4468 75.2653 17.8555 75.4639 18.3226C75.6625 18.7897 75.7676 19.2802 75.7676 19.8057ZM67.94 19.8057C67.94 20.4013 68.0568 20.9735 68.2905 21.499C68.5125 22.0245 68.8279 22.4916 69.2135 22.8887C69.599 23.2857 70.043 23.601 70.557 23.8346C71.0594 24.0681 71.5968 24.1849 72.1459 24.1849C72.695 24.1849 73.2324 24.0681 73.7465 23.8346C74.2488 23.601 74.7045 23.2857 75.09 22.8887C75.4756 22.4916 75.7793 22.0245 76.013 21.499C76.235 20.9735 76.3518 20.4013 76.3518 19.8057C76.3518 19.2101 76.235 18.6379 76.013 18.1124C75.7793 17.5869 75.4756 17.1198 75.09 16.7227C74.7045 16.3257 74.2488 16.0104 73.7465 15.7768C73.2324 15.5433 72.695 15.4265 72.1459 15.4265C71.5968 15.4265 71.0594 15.5433 70.557 15.7768C70.043 16.0104 69.599 16.3257 69.2135 16.7227C68.8279 17.1198 68.5125 17.5869 68.2905 18.1124C68.0568 18.6379 67.94 19.2101 67.94 19.8057Z" fill="black"/>
<path d="M79.7435 16.3023H82.5475C82.7928 16.3023 83.0265 16.3374 83.2251 16.4074C83.4237 16.4892 83.5989 16.5943 83.7391 16.7227C83.8793 16.8512 83.9845 17.0147 84.0663 17.1899C84.148 17.365 84.1831 17.5635 84.1831 17.7621C84.1831 18.2058 84.0312 18.5678 83.7391 18.8481C83.4471 19.1401 83.0498 19.2802 82.5475 19.2802H79.7435V16.3023ZM83.1316 23.3091H79.7435V19.8057H83.1316C83.4237 19.8057 83.6807 19.8524 83.9261 19.9342C84.1597 20.0276 84.3583 20.156 84.5336 20.3078C84.7088 20.4597 84.8373 20.6465 84.9308 20.8567C85.0126 21.0786 85.0593 21.3121 85.0593 21.5574C85.0593 21.8026 85.0126 22.0362 84.9308 22.2464C84.8373 22.4683 84.7088 22.6551 84.5336 22.8069C84.3583 22.9587 84.1597 23.0872 83.9261 23.1689C83.6807 23.2623 83.4237 23.3091 83.1316 23.3091ZM82.5475 15.7768H79.1594V23.8346H83.1316C83.4938 23.8346 83.8326 23.7762 84.148 23.6477C84.4518 23.5309 84.7205 23.3674 84.9425 23.1572C85.1645 22.947 85.328 22.7018 85.4565 22.4215C85.5851 22.153 85.6435 21.861 85.6435 21.5574C85.6435 21.3238 85.6201 21.1136 85.5617 20.9268C85.5033 20.7516 85.4215 20.5881 85.328 20.4363C85.2346 20.2962 85.1294 20.1677 85.0126 20.0626C84.8958 19.9575 84.7789 19.8758 84.6504 19.8057C84.3583 19.6305 84.0195 19.5138 83.6574 19.4554V19.397C83.856 19.3269 84.0429 19.2218 84.2065 19.0817C84.3467 18.9532 84.4752 18.7897 84.592 18.5795C84.7088 18.381 84.7672 18.1007 84.7672 17.7621C84.7672 17.4935 84.7088 17.2482 84.6037 17.003C84.4985 16.7695 84.3467 16.5593 84.148 16.3724C83.9494 16.1972 83.7041 16.0454 83.4354 15.9403C83.1667 15.8352 82.8629 15.7768 82.5475 15.7768Z" fill="black"/>
<path d="M88.7345 21.6742H93.6413L94.1671 23.8346H94.7512L92.8235 15.7768H89.5523L87.6246 23.8346H88.2087L88.7345 21.6742ZM88.8513 21.1487L90.0196 16.3023H92.3562L93.5245 21.1487H88.8513Z" fill="black"/>
<path d="M97.3206 23.8346H103.513V25.3527H104.097V23.3091H103.162V15.7768H102.578V23.3091H97.9047V15.7768H97.3206V23.8346Z" fill="black"/>
<path d="M112.105 15.7768L107.198 22.8419H107.139V15.7768H106.555V23.8346H107.198L112.105 16.7695H112.163V23.8346H112.747V15.7768H112.105Z" fill="black"/>
<path d="M123.378 19.8057C123.378 20.3312 123.273 20.8334 123.075 21.3005C122.876 21.7676 122.607 22.1763 122.268 22.5266C121.93 22.877 121.544 23.1572 121.112 23.3558C120.68 23.5543 120.224 23.6594 119.757 23.6594C119.289 23.6594 118.834 23.5543 118.401 23.3558C117.969 23.1572 117.584 22.877 117.245 22.5266C116.906 22.1763 116.637 21.7676 116.439 21.3005C116.24 20.8334 116.135 20.3312 116.135 19.8057C116.135 19.2802 116.24 18.7897 116.439 18.3226C116.637 17.8555 116.906 17.4468 117.245 17.0964C117.584 16.7461 117.969 16.4658 118.401 16.2556C118.834 16.0571 119.289 15.952 119.757 15.952C120.224 15.952 120.68 16.0571 121.112 16.2556C121.544 16.4658 121.93 16.7461 122.268 17.0964C122.607 17.4468 122.876 17.8555 123.075 18.3226C123.273 18.7897 123.378 19.2802 123.378 19.8057ZM115.551 19.8057C115.551 20.4013 115.668 20.9735 115.901 21.499C116.123 22.0245 116.439 22.4916 116.824 22.8887C117.21 23.2857 117.654 23.601 118.168 23.8346C118.67 24.0681 119.207 24.1849 119.757 24.1849C120.306 24.1849 120.843 24.0681 121.357 23.8346C121.86 23.601 122.315 23.2857 122.701 22.8887C123.086 22.4916 123.39 22.0245 123.624 21.499C123.846 20.9735 123.963 20.4013 123.963 19.8057C123.963 19.2101 123.846 18.6379 123.624 18.1124C123.39 17.5869 123.086 17.1198 122.701 16.7227C122.315 16.3257 121.86 16.0104 121.357 15.7768C120.843 15.5433 120.306 15.4265 119.757 15.4265C119.207 15.4265 118.67 15.5433 118.168 15.7768C117.654 16.0104 117.21 16.3257 116.824 16.7227C116.439 17.1198 116.123 17.5869 115.901 18.1124C115.668 18.6379 115.551 19.2101 115.551 19.8057Z" fill="black"/>
<path d="M126.77 15.7768V23.8346H127.354V20.0393H132.261V23.8346H132.845V15.7768H132.261V19.5138H127.354V15.7768H126.77Z" fill="black"/>
<path d="M136.119 15.7768V23.8346H136.703V20.0393H141.61V23.8346H142.194V15.7768H141.61V19.5138H136.703V15.7768H136.119Z" fill="black"/>
<path d="M151.192 21.207C151.192 20.845 151.122 20.4947 150.982 20.1794C150.842 19.8641 150.643 19.5838 150.398 19.3386C150.152 19.105 149.849 18.9182 149.498 18.778C149.136 18.6496 148.75 18.5795 148.33 18.5795H146.052V15.7768H145.468V23.8346H148.33C148.75 23.8346 149.136 23.7645 149.498 23.6244C149.849 23.4959 150.152 23.3091 150.398 23.0638C150.643 22.8303 150.842 22.55 150.982 22.2347C151.122 21.9194 151.192 21.5691 151.192 21.207ZM150.608 21.207C150.608 21.499 150.55 21.7793 150.444 22.0245C150.328 22.2814 150.176 22.5033 149.977 22.6901C149.779 22.8887 149.533 23.0405 149.253 23.1456C148.972 23.2507 148.669 23.3091 148.33 23.3091H146.052V19.105H148.33C148.669 19.105 148.972 19.1634 149.253 19.2685C149.533 19.3736 149.779 19.5254 149.977 19.7123C150.176 19.9108 150.328 20.1327 150.444 20.3896C150.55 20.6465 150.608 20.9151 150.608 21.207ZM153.062 23.8346V15.7768H152.477V23.8346H153.062Z" fill="black"/>
<path d="M161.883 15.7768H161.241L158.846 19.1634H158.787L156.392 15.7768H155.75L158.495 19.6305L155.516 23.8346H156.158L158.787 20.0976H158.846L161.474 23.8346H162.117L159.138 19.6305L161.883 15.7768Z" fill="black"/>
<path d="M46.5559 31.2305C46.5559 30.8335 46.4858 30.4598 46.3339 30.1212C46.1821 29.7825 45.9834 29.4905 45.7147 29.2336C45.446 28.9884 45.1306 28.7899 44.7567 28.6381C44.3829 28.4979 43.974 28.4279 43.5183 28.4279H40.2471V36.4856H40.8312V34.0332H43.5183C43.974 34.0332 44.3829 33.9632 44.7567 33.8114C45.1306 33.6712 45.446 33.4727 45.7147 33.2158C45.9834 32.9705 46.1821 32.6669 46.3339 32.3283C46.4858 31.9896 46.5559 31.6276 46.5559 31.2305ZM45.9718 31.2305C45.9718 31.5458 45.9133 31.8495 45.7965 32.1297C45.6797 32.41 45.5161 32.6552 45.2941 32.8538C45.0722 33.0523 44.8151 33.2158 44.5231 33.3326C44.2193 33.4493 43.8805 33.5077 43.5183 33.5077H40.8312V28.9534H43.5183C43.8805 28.9534 44.2193 29.0118 44.5231 29.1285C44.8151 29.2453 45.0722 29.4088 45.2941 29.6073C45.5161 29.8175 45.6797 30.0628 45.7965 30.3314C45.9133 30.6116 45.9718 30.9152 45.9718 31.2305Z" fill="black"/>
<path d="M54.9641 35.9601H49.9403V32.6903H53.9126V32.1648H49.9403V28.9534H54.9641V28.4279H49.3562V36.4856H54.9641V35.9601Z" fill="black"/>
<path d="M57.5298 28.4279V36.4856H66.993V28.4279H66.4089V35.9601H62.5535V28.4279H61.9693V35.9601H58.1139V28.4279H57.5298Z" fill="black"/>
<path d="M75.8749 35.9601H70.8512V32.6903H74.8234V32.1648H70.8512V28.9534H75.8749V28.4279H70.267V36.4856H75.8749V35.9601Z" fill="black"/>
<path d="M78.4406 28.4279V36.4856H79.0247V32.6903H83.9316V36.4856H84.5158V28.4279H83.9316V32.1648H79.0247V28.4279H78.4406Z" fill="black"/>
<path d="M93.3388 28.4279L88.4319 35.493H88.3735V28.4279H87.7893V36.4856H88.4319L93.3388 29.4205H93.3972V36.4856H93.9813V28.4279H93.3388Z" fill="black"/>
<path d="M100.348 27.3769C100.792 27.3769 101.154 27.2367 101.446 26.9448C101.727 26.6645 101.867 26.3025 101.867 25.8587H101.4C101.4 26.1507 101.294 26.4076 101.096 26.6061C100.897 26.8046 100.64 26.9097 100.348 26.9097C100.056 26.9097 99.799 26.8046 99.6004 26.6061C99.4018 26.4076 99.2967 26.1507 99.2967 25.8587H98.8293C98.8293 26.3025 98.9695 26.6645 99.2616 26.9448C99.542 27.2367 99.9042 27.3769 100.348 27.3769ZM102.802 28.4279L97.8947 35.493H97.8363V28.4279H97.2521V36.4856H97.8947L102.802 29.4205H102.86V36.4856H103.444V28.4279H102.802Z" fill="black"/>
<mask id="path-3-inside-1_1_735" fill="white">
<path fill-rule="evenodd" clip-rule="evenodd" d="M22.8941 20.5725C23.8127 19.2072 24.3488 17.5632 24.3488 15.7939C24.3488 11.0604 20.5115 7.22314 15.778 7.22314C11.0445 7.22314 7.20728 11.0604 7.20728 15.7939C7.20728 17.5631 7.74335 19.2072 8.66194 20.5724L15.778 13.4564L22.8941 20.5725Z"/>
</mask>
<path fill-rule="evenodd" clip-rule="evenodd" d="M22.8941 20.5725C23.8127 19.2072 24.3488 17.5632 24.3488 15.7939C24.3488 11.0604 20.5115 7.22314 15.778 7.22314C11.0445 7.22314 7.20728 11.0604 7.20728 15.7939C7.20728 17.5631 7.74335 19.2072 8.66194 20.5724L15.778 13.4564L22.8941 20.5725Z" fill="#E53151"/>
<path d="M22.8941 20.5725L18.6514 24.8151L23.8042 29.9678L27.8721 23.922L22.8941 20.5725ZM8.66194 20.5724L3.68386 23.9218L7.75181 29.9678L12.9046 24.8151L8.66194 20.5724ZM15.778 13.4564L20.0206 9.21374L15.778 4.9711L11.5353 9.21374L15.778 13.4564ZM18.3488 15.7939C18.3488 16.333 18.1894 16.8167 17.916 17.223L27.8721 23.922C29.436 21.5977 30.3488 18.7933 30.3488 15.7939H18.3488ZM15.778 13.2231C17.1978 13.2231 18.3488 14.3741 18.3488 15.7939H30.3488C30.3488 7.74669 23.8252 1.22314 15.778 1.22314V13.2231ZM13.2073 15.7939C13.2073 14.3741 14.3582 13.2231 15.778 13.2231V1.22314C7.73082 1.22314 1.20728 7.74669 1.20728 15.7939H13.2073ZM13.64 17.223C13.3667 16.8167 13.2073 16.333 13.2073 15.7939H1.20728C1.20728 18.7933 2.12003 21.5976 3.68386 23.9218L13.64 17.223ZM12.9046 24.8151L20.0206 17.699L11.5353 9.21374L4.4193 16.3298L12.9046 24.8151ZM11.5353 17.699L18.6514 24.8151L27.1367 16.3298L20.0206 9.21374L11.5353 17.699Z" fill="#E53151" mask="url(#path-3-inside-1_1_735)"/>
<rect x="7.74874" y="25.7283" width="11.3549" height="11.3549" transform="rotate(-45 7.74874 25.7283)" fill="#0054D1" stroke="#0054D1" stroke-width="6"/>
</svg>
