<svg width="79" height="100" viewBox="0 0 79 100" fill="none" xmlns="http://www.w3.org/2000/svg">
<path d="M73.913 100H4.34783C3.19471 100 2.08882 99.5419 1.27345 98.7266C0.458073 97.9112 0 96.8053 0 95.6522V4.34783C0 3.19471 0.458073 2.08882 1.27345 1.27345C2.08882 0.458073 3.19471 0 4.34783 0H73.913C75.0662 0 76.1721 0.458073 76.9874 1.27345C77.8028 2.08882 78.2609 3.19471 78.2609 4.34783V95.6522C78.2609 96.8053 77.8028 97.9112 76.9874 98.7266C76.1721 99.5419 75.0662 100 73.913 100ZM2.17391 97.8261H76.087V2.38001H2.17391V97.8261Z" fill="#7B4B89"/>
<path d="M19.5652 39.1304C18.708 39.1268 17.8709 38.8699 17.1593 38.3919C16.4476 37.9139 15.8932 37.2362 15.5656 36.444C15.238 35.6518 15.1519 34.7804 15.3182 33.9394C15.4845 33.0984 15.8956 32.3254 16.5 31.7174L25.1957 23.0217C25.8423 22.3775 26.6753 21.9531 27.5766 21.8087C28.478 21.6644 29.4019 21.8073 30.2174 22.2174L36.3696 25.3043L47.2391 16.2609C47.9853 15.6345 48.9202 15.2769 49.8938 15.2453C50.8675 15.2138 51.8236 15.5102 52.6087 16.087L61.3043 22.6087C62.2268 23.3006 62.8367 24.3306 62.9998 25.4721C63.1629 26.6136 62.8658 27.7732 62.1739 28.6956C61.482 29.6181 60.4521 30.228 59.3105 30.3911C58.169 30.5542 57.0094 30.2571 56.087 29.5652L50.1522 25.1087L39.7391 33.8043C39.0902 34.3426 38.2987 34.6805 37.4612 34.777C36.6236 34.8735 35.7761 34.7244 35.0217 34.3478L29.1304 31.3696L22.6087 37.8913C21.7954 38.6866 20.7027 39.1314 19.5652 39.1304Z" fill="#7B4B89"/>
<path d="M19.5652 54.3478C21.9665 54.3478 23.913 52.4012 23.913 50C23.913 47.5988 21.9665 45.6522 19.5652 45.6522C17.164 45.6522 15.2174 47.5988 15.2174 50C15.2174 52.4012 17.164 54.3478 19.5652 54.3478Z" fill="#7B4B89"/>
<path d="M19.5652 69.5652C21.9665 69.5652 23.913 67.6186 23.913 65.2174C23.913 62.8162 21.9665 60.8696 19.5652 60.8696C17.164 60.8696 15.2174 62.8162 15.2174 65.2174C15.2174 67.6186 17.164 69.5652 19.5652 69.5652Z" fill="#7B4B89"/>
<path d="M19.5652 84.7826C21.9665 84.7826 23.913 82.836 23.913 80.4348C23.913 78.0335 21.9665 76.087 19.5652 76.087C17.164 76.087 15.2174 78.0335 15.2174 80.4348C15.2174 82.836 17.164 84.7826 19.5652 84.7826Z" fill="#7B4B89"/>
<path d="M58.6957 54.3478H34.7826C33.6295 54.3478 32.5236 53.8898 31.7082 53.0744C30.8929 52.259 30.4348 51.1531 30.4348 50C30.4348 48.8469 30.8929 47.741 31.7082 46.9256C32.5236 46.1102 33.6295 45.6522 34.7826 45.6522H58.6957C59.8488 45.6522 60.9547 46.1102 61.77 46.9256C62.5854 47.741 63.0435 48.8469 63.0435 50C63.0435 51.1531 62.5854 52.259 61.77 53.0744C60.9547 53.8898 59.8488 54.3478 58.6957 54.3478Z" fill="#7B4B89"/>
<path d="M58.6957 69.5652H34.7826C33.6295 69.5652 32.5236 69.1071 31.7082 68.2918C30.8929 67.4764 30.4348 66.3705 30.4348 65.2174C30.4348 64.0643 30.8929 62.9584 31.7082 62.143C32.5236 61.3276 33.6295 60.8696 34.7826 60.8696H58.6957C59.8488 60.8696 60.9547 61.3276 61.77 62.143C62.5854 62.9584 63.0435 64.0643 63.0435 65.2174C63.0435 66.3705 62.5854 67.4764 61.77 68.2918C60.9547 69.1071 59.8488 69.5652 58.6957 69.5652Z" fill="#7B4B89"/>
<path d="M58.6957 84.7826H34.7826C33.6295 84.7826 32.5236 84.3245 31.7082 83.5092C30.8929 82.6938 30.4348 81.5879 30.4348 80.4348C30.4348 79.2817 30.8929 78.1758 31.7082 77.3604C32.5236 76.545 33.6295 76.087 34.7826 76.087H58.6957C59.8488 76.087 60.9547 76.545 61.77 77.3604C62.5854 78.1758 63.0435 79.2817 63.0435 80.4348C63.0435 81.5879 62.5854 82.6938 61.77 83.5092C60.9547 84.3245 59.8488 84.7826 58.6957 84.7826Z" fill="#7B4B89"/>
</svg>
