<svg width="59" height="75" viewBox="0 0 59 75" fill="none" xmlns="http://www.w3.org/2000/svg">
<path d="M55.4348 75H3.26087C2.39603 75 1.56662 74.6564 0.955086 74.0449C0.343555 73.4334 0 72.604 0 71.7391V3.26087C0 2.39603 0.343555 1.56662 0.955086 0.955087C1.56662 0.343555 2.39603 0 3.26087 0H55.4348C56.2996 0 57.129 0.343555 57.7406 0.955087C58.3521 1.56662 58.6957 2.39603 58.6957 3.26087V71.7391C58.6957 72.604 58.3521 73.4334 57.7406 74.0449C57.129 74.6564 56.2996 75 55.4348 75ZM1.63043 73.3696H57.0652V1.78501H1.63043V73.3696Z" fill="white"/>
<path d="M14.6739 29.3478C14.031 29.3451 13.4032 29.1524 12.8694 28.7939C12.3357 28.4354 11.9199 27.9272 11.6742 27.333C11.4285 26.7388 11.364 26.0853 11.4886 25.4546C11.6133 24.8238 11.9217 24.244 12.375 23.788L18.8967 17.2663C19.3817 16.7831 20.0065 16.4648 20.6825 16.3566C21.3585 16.2483 22.0514 16.3555 22.663 16.663L27.2772 18.9783L35.4293 12.1957C35.989 11.7259 36.6901 11.4577 37.4204 11.434C38.1506 11.4104 38.8677 11.6326 39.4565 12.0652L45.9783 16.9565C46.6701 17.4754 47.1275 18.2479 47.2498 19.1041C47.3721 19.9602 47.1493 20.8299 46.6304 21.5217C46.1115 22.2136 45.339 22.671 44.4829 22.7933C43.6268 22.9156 42.7571 22.6928 42.0652 22.1739L37.6141 18.8315L29.8043 25.3533C29.3176 25.7569 28.7241 26.0104 28.0959 26.0827C27.4677 26.1551 26.8321 26.0433 26.2663 25.7609L21.8478 23.5272L16.9565 28.4185C16.3465 29.0149 15.5271 29.3486 14.6739 29.3478Z" fill="white"/>
<path d="M14.6739 40.7609C16.4748 40.7609 17.9348 39.3009 17.9348 37.5C17.9348 35.6991 16.4748 34.2391 14.6739 34.2391C12.873 34.2391 11.413 35.6991 11.413 37.5C11.413 39.3009 12.873 40.7609 14.6739 40.7609Z" fill="white"/>
<path d="M14.6739 52.1739C16.4748 52.1739 17.9348 50.714 17.9348 48.913C17.9348 47.1121 16.4748 45.6522 14.6739 45.6522C12.873 45.6522 11.413 47.1121 11.413 48.913C11.413 50.714 12.873 52.1739 14.6739 52.1739Z" fill="white"/>
<path d="M14.6739 63.587C16.4748 63.587 17.9348 62.127 17.9348 60.3261C17.9348 58.5252 16.4748 57.0652 14.6739 57.0652C12.873 57.0652 11.413 58.5252 11.413 60.3261C11.413 62.127 12.873 63.587 14.6739 63.587Z" fill="white"/>
<path d="M44.0217 40.7609H26.087C25.2221 40.7609 24.3927 40.4173 23.7812 39.8058C23.1696 39.1942 22.8261 38.3648 22.8261 37.5C22.8261 36.6352 23.1696 35.8057 23.7812 35.1942C24.3927 34.5827 25.2221 34.2391 26.087 34.2391H44.0217C44.8866 34.2391 45.716 34.5827 46.3275 35.1942C46.9391 35.8057 47.2826 36.6352 47.2826 37.5C47.2826 38.3648 46.9391 39.1942 46.3275 39.8058C45.716 40.4173 44.8866 40.7609 44.0217 40.7609Z" fill="white"/>
<path d="M44.0217 52.1739H26.087C25.2221 52.1739 24.3927 51.8304 23.7812 51.2188C23.1696 50.6073 22.8261 49.7779 22.8261 48.913C22.8261 48.0482 23.1696 47.2188 23.7812 46.6073C24.3927 45.9957 25.2221 45.6522 26.087 45.6522H44.0217C44.8866 45.6522 45.716 45.9957 46.3275 46.6073C46.9391 47.2188 47.2826 48.0482 47.2826 48.913C47.2826 49.7779 46.9391 50.6073 46.3275 51.2188C45.716 51.8304 44.8866 52.1739 44.0217 52.1739Z" fill="white"/>
<path d="M44.0217 63.587H26.087C25.2221 63.587 24.3927 63.2434 23.7812 62.6319C23.1696 62.0203 22.8261 61.1909 22.8261 60.3261C22.8261 59.4613 23.1696 58.6318 23.7812 58.0203C24.3927 57.4088 25.2221 57.0652 26.087 57.0652H44.0217C44.8866 57.0652 45.716 57.4088 46.3275 58.0203C46.9391 58.6318 47.2826 59.4613 47.2826 60.3261C47.2826 61.1909 46.9391 62.0203 46.3275 62.6319C45.716 63.2434 44.8866 63.587 44.0217 63.587Z" fill="white"/>
</svg>
